<svg width="24" height="24" fill="none" xmlns="http://www.w3.org/2000/svg"><path fill-rule="evenodd" clip-rule="evenodd" d="M2 12a1 1 0 011-1h18a1 1 0 110 2H3a1 1 0 01-1-1z" fill="url(#paint0_linear_107_21)"/><path fill-rule="evenodd" clip-rule="evenodd" d="M2 6a1 1 0 011-1h18a1 1 0 110 2H3a1 1 0 01-1-1z" fill="url(#paint1_linear_107_21)"/><path fill-rule="evenodd" clip-rule="evenodd" d="M2 18a1 1 0 011-1h18a1 1 0 110 2H3a1 1 0 01-1-1z" fill="url(#paint2_linear_107_21)"/><defs><linearGradient id="paint0_linear_107_21" x1="22" y1="11.998" x2="2" y2="11.998" gradientUnits="userSpaceOnUse"><stop stop-color="#723D63"/><stop offset="1" stop-color="#AA52A6"/></linearGradient><linearGradient id="paint1_linear_107_21" x1="22" y1="5.998" x2="2" y2="5.998" gradientUnits="userSpaceOnUse"><stop stop-color="#723D63"/><stop offset="1" stop-color="#AA52A6"/></linearGradient><linearGradient id="paint2_linear_107_21" x1="22" y1="17.998" x2="2" y2="17.998" gradientUnits="userSpaceOnUse"><stop stop-color="#723D63"/><stop offset="1" stop-color="#AA52A6"/></linearGradient></defs></svg>