<svg width="24" height="24" viewBox="0 0 24 24" fill="none" xmlns="http://www.w3.org/2000/svg">
<path fill-rule="evenodd" clip-rule="evenodd" d="M2 12C2 11.4477 2.44772 11 3 11H21C21.5523 11 22 11.4477 22 12C22 12.5523 21.5523 13 21 13H3C2.44772 13 2 12.5523 2 12Z" fill="url(#paint0_linear_107_21)"/>
<path fill-rule="evenodd" clip-rule="evenodd" d="M2 6C2 5.44772 2.44772 5 3 5H21C21.5523 5 22 5.44772 22 6C22 6.55228 21.5523 7 21 7H3C2.44772 7 2 6.55228 2 6Z" fill="url(#paint1_linear_107_21)"/>
<path fill-rule="evenodd" clip-rule="evenodd" d="M2 18C2 17.4477 2.44772 17 3 17H21C21.5523 17 22 17.4477 22 18C22 18.5523 21.5523 19 21 19H3C2.44772 19 2 18.5523 2 18Z" fill="url(#paint2_linear_107_21)"/>
<defs>
<linearGradient id="paint0_linear_107_21" x1="22" y1="11.9983" x2="2" y2="11.9983" gradientUnits="userSpaceOnUse">
<stop stop-color="#723D63"/>
<stop offset="1" stop-color="#AA52A6"/>
</linearGradient>
<linearGradient id="paint1_linear_107_21" x1="22" y1="5.99831" x2="2" y2="5.99831" gradientUnits="userSpaceOnUse">
<stop stop-color="#723D63"/>
<stop offset="1" stop-color="#AA52A6"/>
</linearGradient>
<linearGradient id="paint2_linear_107_21" x1="22" y1="17.9983" x2="2" y2="17.9983" gradientUnits="userSpaceOnUse">
<stop stop-color="#723D63"/>
<stop offset="1" stop-color="#AA52A6"/>
</linearGradient>
</defs>
</svg>
