<svg width="15" height="15" viewBox="0 0 15 15" fill="none" xmlns="http://www.w3.org/2000/svg">
<path d="M13.404 3.09582C12.9718 2.53228 12.4676 2.02785 11.9042 1.59541L13.404 3.09582ZM7.87747 1.06025C7.26731 0.979916 6.64924 0.979916 6.03907 1.06025H7.87747ZM12.7037 2.29632L11.1713 3.82868L12.7037 2.29632ZM6.95827 8.04173L9.66658 10.75L6.95827 8.04173ZM12.9165 8.04173C12.9165 11.3323 10.2489 14 6.95827 14C3.66768 14 1 11.3323 1 8.04173C1 4.75113 3.66768 2.08345 6.95827 2.08345C10.2489 2.08345 12.9165 4.75113 12.9165 8.04173Z" stroke="url(#paint0_linear_120_15)" stroke-width="1.5" stroke-linecap="round" stroke-linejoin="round"/>
<defs>
<linearGradient id="paint0_linear_120_15" x1="13.404" y1="7.489" x2="1" y2="7.489" gradientUnits="userSpaceOnUse">
<stop stop-color="#723D63"/>
<stop offset="1" stop-color="#AA52A6"/>
</linearGradient>
</defs>
</svg>
